<?xml version="1.0" encoding="UTF-8" standalone="no"?>
<!-- Created using Karbon, part of Calligra: http://www.calligra.org/karbon -->

<svg
   xmlns:dc="http://purl.org/dc/elements/1.1/"
   xmlns:cc="http://creativecommons.org/ns#"
   xmlns:rdf="http://www.w3.org/1999/02/22-rdf-syntax-ns#"
   xmlns:svg="http://www.w3.org/2000/svg"
   xmlns="http://www.w3.org/2000/svg"
   xmlns:sodipodi="http://sodipodi.sourceforge.net/DTD/sodipodi-0.dtd"
   xmlns:inkscape="http://www.inkscape.org/namespaces/inkscape"
   width="51.2pt"
   height="51.2pt"
   id="svg4084"
   version="1.1"
   inkscape:version="0.48.3.1 r9886"
   sodipodi:docname="boolean-intersection_.svg">
  <metadata
     id="metadata4099">
    <rdf:RDF>
      <cc:Work
         rdf:about="">
        <dc:format>image/svg+xml</dc:format>
        <dc:type
           rdf:resource="http://purl.org/dc/dcmitype/StillImage" />
        <dc:title></dc:title>
      </cc:Work>
    </rdf:RDF>
  </metadata>
  <sodipodi:namedview
     pagecolor="#ffffff"
     bordercolor="#666666"
     borderopacity="1"
     objecttolerance="10"
     gridtolerance="10"
     guidetolerance="10"
     inkscape:pageopacity="0"
     inkscape:pageshadow="2"
     inkscape:window-width="1366"
     inkscape:window-height="709"
     id="namedview4097"
     showgrid="false"
     inkscape:zoom="7.375"
     inkscape:cx="27.241115"
     inkscape:cy="32"
     inkscape:window-x="0"
     inkscape:window-y="27"
     inkscape:window-maximized="1"
     inkscape:current-layer="layer1" />
  <defs
     id="defs4086">
    <radialGradient
       id="gradient0"
       gradientTransform="matrix(0.542613 0.570754 -0.296 0.281405 -33.8093 -44.6008)"
       gradientUnits="objectBoundingBox"
       cx="3.61322075994"
       cy="0.55401820057"
       fx="3.61322075994"
       fy="0.55401820057"
       r="0.62228813224"
       spreadMethod="pad">
      <stop
         stop-color="#71b2f8"
         offset="0.00000000000"
         stop-opacity="1.00000000000"
         id="stop4089" />
      <stop
         stop-color="#002795"
         offset="1.00000000000"
         stop-opacity="1.00000000000"
         id="stop4091" />
    </radialGradient>
  </defs>
  <g
     id="layer1">
    <path
       id="path3623"
       stroke-miterlimit="4.00000000000"
       d="M37.1429 18.5714C37.1429 28.8281 28.8281 37.1429 18.5714 37.1429C8.31471 37.1429 -1.52837e-07 28.8281 0 18.5714C-1.52837e-07 8.31471 8.31471 1.77636e-15 18.5714 0C28.8281 -3.55271e-15 37.1429 8.31471 37.1429 18.5714Z"
       transform="matrix(1.00924 0 0 1.00924 23.0723 3.19484)"
       stroke-linejoin="miter"
       stroke-linecap="butt"
       stroke-width="2.17985344000"
       stroke="#000137"
       fill-rule="evenodd"
       fill="#ffffff" />
    <path
       id="path3625"
       transform="matrix(1.12939 0 0 1.12939 3.80523 18.8564)"
       fill="#ffffff"
       fill-rule="evenodd"
       stroke="#000137"
       stroke-width="1.94795418000"
       stroke-linecap="butt"
       stroke-linejoin="miter"
       stroke-miterlimit="4.00000000000"
       d="M37.1429 18.5714C37.1429 28.8281 28.8281 37.1429 18.5714 37.1429C8.31471 37.1429 -1.52837e-07 28.8281 0 18.5714C-1.52837e-07 8.31471 8.31471 1.77636e-15 18.5714 0C28.8281 -3.55271e-15 37.1429 8.31471 37.1429 18.5714Z" />
    <path
       id="path3605"
       stroke-miterlimit="4.00000000000"
       d="M1.6875 7.81597e-14C1.19781 7.81597e-14 0.73134 0.029427 0.25 0.0625C0.09002 1.04721 0 2.03282 0 3.0625C0 13.4087 8.37257 21.8125 18.7188 21.8125C20.067 21.8125 21.3885 21.6772 22.6562 21.4063C22.6592 21.2622 22.6562 21.1135 22.6562 20.9688C22.6562 9.39089 13.2654 -1e-06 1.6875 7.81597e-14Z"
       stroke-linejoin="miter"
       stroke-linecap="butt"
       stroke-width="2.20000005000"
       stroke="#000137"
       fill-rule="evenodd"
       fill="url(#gradient0)"
       transform="translate(23.0832, 18.862)" />
  </g>
</svg>
