<?xml version="1.0" standalone="no"?>
<!DOCTYPE svg PUBLIC "-//W3C//DTD SVG 20010904//EN" "http://www.w3.org/TR/2001/REC-SVG-20010904/DTD/svg10.dtd">
<!-- Created using Karbon, part of Calligra: http://www.calligra.org/karbon -->
<svg xmlns="http://www.w3.org/2000/svg" xmlns:xlink="http://www.w3.org/1999/xlink" width="51.2pt" height="51.2pt">
<defs>
  <radialGradient id="gradient0" gradientTransform="matrix(0.703785 0.972868 -1.30054 0.940826 -77.9568 -87.1546)" gradientUnits="objectBoundingBox" cx="2.61053901639" cy="-0.14876038209" fx="2.61053901639" fy="-0.14876038209" r="0.33023917932" spreadMethod="pad">
   <stop stop-color="#71b2f8" offset="0.00000000000" stop-opacity="1.00000000000"/>
   <stop stop-color="#002795" offset="1.00000000000" stop-opacity="1.00000000000"/>
  </radialGradient>
 </defs>
<g id="layer1">
  <path id="path3664" transform="matrix(1.00924 0 0 1.00924 22.5285 2.82558)" fill="#ffffff" fill-rule="evenodd" stroke="#000137" stroke-width="2.17985344000" stroke-linecap="butt" stroke-linejoin="miter" stroke-miterlimit="4.00000000000" d="M37.1429 18.5714C37.1429 28.8281 28.8281 37.1429 18.5714 37.1429C8.31471 37.1429 -1.52837e-07 28.8281 0 18.5714C-1.52837e-07 8.31471 8.31471 1.77636e-15 18.5714 0C28.8281 -3.55271e-15 37.1429 8.31471 37.1429 18.5714Z"/>
  <path id="path3654" transform="translate(3.25813, 18.5553)" fill="url(#gradient0)" fill-rule="evenodd" stroke="#000137" stroke-width="2.20000005000" stroke-linecap="butt" stroke-linejoin="miter" stroke-miterlimit="4.00000000000" d="M19.5312 0C8.63216 0.748877 1e-05 9.81808 0 20.9062C0 32.4841 9.39089 41.875 20.9688 41.875C32.4019 41.875 41.7066 32.7219 41.9375 21.3438C40.6697 21.6147 39.3482 21.75 38 21.75C27.6538 21.75 19.2812 13.3462 19.2812 3C19.2812 1.97032 19.3713 0.98471 19.5312 0Z"/>
 </g>
</svg>
